<?xml version="1.0" encoding="UTF-8"?><svg id="Layer_2" xmlns="http://www.w3.org/2000/svg" xmlns:xlink="http://www.w3.org/1999/xlink" viewBox="0 0 816.7176 186"><defs><linearGradient id="linear-gradient" x1="0" y1="93" x2="186" y2="93" gradientUnits="userSpaceOnUse"><stop offset="0" stop-color="#0d7e72"/><stop offset="1" stop-color="#19a495"/></linearGradient></defs><g id="Layer_1-2"><circle cx="93" cy="93" r="93" style="fill:url(#linear-gradient);"/><path d="m123.7447,80.1632c.2812-1.2451.4428-2.5353.4428-3.8654,0-8.4622-6.0091-15.5198-13.9926-17.1415.1864-1.0234.2982-2.073.2982-3.1502,0-9.6611-7.8319-17.493-17.493-17.493s-17.493,7.8319-17.493,17.493c0,1.0772.1118,2.1268.2982,3.1502-7.9835,1.6217-13.9926,8.6793-13.9926,17.1415,0,1.3301.1616,2.6203.4428,3.8654-8.0317,2.9661-13.7692,10.6679-13.7692,19.7301,0,11.6258,9.4246,21.0504,21.0504,21.0504,4.3439,0,8.3793-1.3175,11.7318-3.5722,1.6025,1.0778,3.3647,1.9329,5.2387,2.5404v27.575h12.9861v-27.575c1.874-.6075,3.6363-1.4626,5.2388-2.5404,3.3525,2.2547,7.3879,3.5722,11.7318,3.5722,11.6258,0,21.0504-9.4246,21.0504-21.0504,0-9.0622-5.7375-16.764-13.7692-19.7301Z" style="fill:#fff;"/><g><path d="m240.4618,132.1332c-5.1997,0-10.0532-1.3403-14.562-4.021-4.5083-2.6812-8.1035-6.5596-10.7842-11.6377-2.6807-5.0757-4.021-11.1895-4.021-18.3394,0-7.2295,1.3403-13.4043,4.021-18.522,2.6807-5.1182,6.2759-9.0176,10.7842-11.6982,4.5088-2.6812,9.3623-4.0215,14.562-4.0215,3.8994,0,7.6353.7729,11.2109,2.3154,3.5737,1.5439,6.7212,3.7773,9.4438,6.7021,2.7207,2.9243,4.8535,6.519,6.3975,10.7842,1.5425,4.2651,2.3154,9.0786,2.3154,14.4399,0,7.1499-1.3613,13.2637-4.0825,18.3394-2.7227,5.0781-6.2964,8.9565-10.7231,11.6377-4.4287,2.6807-9.2822,4.021-14.562,4.021Zm0-6.2144c4.2231,0,8.001-1.1577,11.333-3.4731,3.3301-2.3154,5.9497-5.5635,7.8594-9.7485,1.9082-4.1831,2.8638-9.0366,2.8638-14.562,0-5.6055-.9556-10.4985-2.8638-14.6836-1.9097-4.1831-4.5293-7.4521-7.8594-9.8096-3.332-2.355-7.1099-3.5337-11.333-3.5337s-8.0024,1.1787-11.3325,3.5337c-3.332,2.3574-5.9312,5.6265-7.7988,9.8096-1.8696,4.1851-2.8027,9.0781-2.8027,14.6836,0,5.5254.9331,10.3789,2.8027,14.562,1.8677,4.1851,4.4668,7.4331,7.7988,9.7485,3.3301,2.3154,7.1074,3.4731,11.3325,3.4731Z" style="fill:#545352;"/><path d="m287.6195,159.4291v-93.9517h5.8491l.853,8.043h.2437c3.1685-2.5171,6.5996-4.7524,10.2969-6.7021,3.6958-1.9497,7.4946-2.9248,11.394-2.9248,5.7671,0,10.5806,1.3823,14.4399,4.1431,3.8574,2.7627,6.7632,6.6016,8.7129,11.5156,1.9497,4.916,2.9243,10.7441,2.9243,17.4863,0,7.3936-1.3403,13.709-4.0215,18.9487-2.6807,5.2397-6.1743,9.2422-10.4795,12.0029-4.3066,2.7607-9.0176,4.1431-14.1353,4.1431-3.0063,0-6.1348-.6909-9.3833-2.0713-3.25-1.3804-6.5-3.3301-9.7485-5.8491l.1221,11.9419v23.2744h-7.0679Zm25.5898-33.5103c4.1436,0,7.8389-1.1978,11.0894-3.5947,3.248-2.3955,5.8071-5.7676,7.6768-10.1143,1.8682-4.3452,2.8027-9.3623,2.8027-15.0493,0-5.1982-.6509-9.8496-1.9497-13.9526-1.3003-4.1016-3.3931-7.3115-6.2754-9.627-2.8848-2.3149-6.7632-3.4727-11.6377-3.4727-3.0879,0-6.2964.874-9.6265,2.6196-3.332,1.748-6.8657,4.2861-10.6016,7.6162v37.6538c3.4917,2.9248,6.8428,4.9771,10.0532,6.1538,3.208,1.1787,6.0317,1.7671,8.4688,1.7671Z" style="fill:#545352;"/><path d="m385.1048,132.1332c-5.6055,0-10.7046-1.3613-15.293-4.082-4.5908-2.7207-8.2466-6.5991-10.9673-11.6372-2.7227-5.0361-4.082-11.1289-4.082-18.2788,0-5.2798.771-10.0322,2.3149-14.2573,1.5425-4.2231,3.6748-7.8179,6.3975-10.7842,2.7212-2.9644,5.7886-5.2397,9.2002-6.8237,3.4121-1.5845,6.9458-2.3765,10.6016-2.3765,5.1982,0,9.667,1.1997,13.4043,3.5947,3.7358,2.3975,6.6201,5.8491,8.6519,10.3579,2.0298,4.5088,3.0464,9.9312,3.0464,16.2681,0,.8945-.021,1.7666-.061,2.6196-.0415.853-.1426,1.7271-.3042,2.6201h-46.062c.1616,5.1997,1.2373,9.8096,3.229,13.8306,1.9897,4.0215,4.7314,7.1895,8.2256,9.5049,3.4917,2.3154,7.5947,3.4731,12.3071,3.4731,3.4922,0,6.6206-.5068,9.3833-1.5234,2.7607-1.0146,5.3618-2.376,7.7988-4.082l2.8027,5.2397c-2.6011,1.626-5.5254,3.0884-8.7739,4.3867-3.25,1.2988-7.1895,1.9497-11.8198,1.9497Zm-23.1528-38.5068h39.8472c0-7.7988-1.666-13.6875-4.9961-17.6689-3.332-3.9795-7.8408-5.9712-13.5264-5.9712-3.4937,0-6.7837.9351-9.8701,2.8027-3.0884,1.8696-5.6475,4.5508-7.6772,8.0425-2.0312,3.4941-3.29,7.7588-3.7773,12.7949Z" style="fill:#545352;"/><path d="m424.4637,130.5492v-65.0718h5.8491l.853,9.9927h.2437c3.2485-3.2485,6.6416-5.9902,10.1753-8.2256,3.5337-2.2334,7.5342-3.3511,12.0029-3.3511,6.7422,0,11.7173,2.0928,14.9272,6.2759,3.2085,4.1851,4.8135,10.4604,4.8135,18.8267v41.5532h-7.0679v-40.5781c0-6.7422-1.1177-11.7173-3.3511-14.9277-2.2354-3.208-5.9097-4.8135-11.0278-4.8135-3.7378,0-7.1094.9751-10.1143,2.9248-3.0063,1.9497-6.4185,4.874-10.2358,8.7734v48.6211h-7.0679Z" style="fill:#545352;"/><path d="m495.5057,130.5492V41.2279h11.4546l32.6577,56.2979,9.6265,18.4004h.6094c-.4077-4.4668-.7729-9.1392-1.0967-14.0132-.3257-4.8745-.4873-9.627-.4873-14.2573v-46.4277h10.7231v89.3213h-11.5762l-32.5361-56.4199-9.6265-18.2783h-.4873c.2437,4.4688.5273,9.0381.853,13.709.3232,4.6724.4873,9.3638.4873,14.0742v46.915h-10.6016Z" style="fill:#545352;"/><path d="m570.5687,130.5492l30.2207-89.3213h12.5513l30.3423,89.3213h-11.9419l-15.5977-49.9614c-1.626-5.1177-3.1685-10.1333-4.6309-15.0493-1.4619-4.9141-2.9243-9.9712-4.3867-15.1709h-.4873c-1.3823,5.1997-2.8237,10.2568-4.3262,15.1709-1.5039,4.916-3.0273,9.9316-4.5693,15.0493l-15.8413,49.9614h-11.333Zm15.7197-27.2959v-8.8955h41.1875v8.8955h-41.1875Z" style="fill:#545352;"/><path d="m655.2576,130.5492V41.2279h13.5259l17.0601,47.7681c1.1367,3.0063,2.2334,6.0928,3.29,9.2612,1.0552,3.168,2.1118,6.2964,3.1685,9.3828h.4873c1.1367-3.0864,2.2124-6.2148,3.2295-9.3828,1.0146-3.1685,2.0103-6.2549,2.9854-9.2612l17.0601-47.7681h13.5259v89.3213h-10.4795v-49.4741c0-2.5986.0801-5.4224.2437-8.4688.1616-3.0464.3657-6.1328.6094-9.2612.2437-3.1265.4453-5.9902.6094-8.5908h-.4878l-7.1895,20.3501-16.8164,46.4272h-7.5547l-16.9385-46.4272-7.1895-20.3501h-.4873c.3237,2.6006.5884,5.4644.792,8.5908.2017,3.1284.3657,6.2148.4873,9.2612.1221,3.0464.1831,5.8701.1831,8.4688v49.4741h-10.1143Z" style="fill:#545352;"/><path d="m784.6693,132.1332c-4.5503,0-8.7734-.6509-12.6729-1.9497-3.8994-1.2983-7.2925-3.4517-10.1753-6.4585-2.8843-3.0044-5.1387-6.9854-6.7632-11.9419-1.626-4.9541-2.437-10.9668-2.437-18.0347v-52.5205h11.2109v52.7642c0,7.1494.9331,12.7759,2.8027,16.8774,1.8677,4.103,4.3657,7.0273,7.4941,8.7734,3.1265,1.748,6.6411,2.6201,10.5405,2.6201,3.9795,0,7.5552-.8721,10.7236-2.6201,3.168-1.7461,5.7061-4.6704,7.6157-8.7734,1.9082-4.1016,2.8638-9.728,2.8638-16.8774v-52.7642h10.8452v52.5205c0,7.0679-.792,13.0806-2.376,18.0347-1.5845,4.9565-3.8384,8.9375-6.7632,11.9419-2.9243,3.0068-6.3364,5.1602-10.2358,6.4585-3.8994,1.2988-8.1245,1.9497-12.6733,1.9497Z" style="fill:#545352;"/></g></g></svg>